<svg width="32" height="32" viewBox="0 0 32 32" fill="none" xmlns="http://www.w3.org/2000/svg">
<path d="M12.8667 5.83332C12.9993 5.60347 13.0351 5.33035 12.9664 5.07405C12.8976 4.81775 12.7299 4.59926 12.5 4.46665C12.2701 4.33405 11.997 4.29818 11.7407 4.36694C11.4844 4.43571 11.2659 4.60347 11.1333 4.83332L8.92 8.66665H7.33333C6.75412 8.66677 6.1907 8.85546 5.72825 9.2042C5.2658 9.55295 4.92946 10.0428 4.7701 10.5996C4.61074 11.1565 4.63702 11.7501 4.84496 12.2907C5.05291 12.8313 5.43121 13.2895 5.92267 13.596C6.0001 13.6433 6.08929 13.6678 6.18 13.6667H25.82C25.9107 13.6678 25.9999 13.6433 26.0773 13.596C26.5688 13.2895 26.9471 12.8313 27.155 12.2907C27.363 11.7501 27.3893 11.1565 27.2299 10.5996C27.0705 10.0428 26.7342 9.55295 26.2718 9.2042C25.8093 8.85546 25.2459 8.66677 24.6667 8.66665H23.08L20.8667 4.83332C20.801 4.71951 20.7136 4.61974 20.6094 4.53972C20.5051 4.4597 20.3862 4.40099 20.2593 4.36694C20.1324 4.33289 20 4.32418 19.8697 4.34128C19.7394 4.35839 19.6138 4.40099 19.5 4.46665C19.3862 4.53232 19.2864 4.61975 19.2064 4.72397C19.1264 4.82818 19.0677 4.94714 19.0336 5.07405C18.9996 5.20096 18.9909 5.33333 19.008 5.4636C19.0251 5.59388 19.0677 5.71951 19.1333 5.83332L20.7707 8.66665H11.2307L12.8667 5.83332Z" fill="#FAFAF8"/>
<path fill-rule="evenodd" clip-rule="evenodd" d="M25.78 15.98C25.7868 15.9416 25.7851 15.9022 25.7751 15.8645C25.765 15.8269 25.7468 15.7919 25.7218 15.762C25.6968 15.7321 25.6655 15.7081 25.6302 15.6916C25.5948 15.6751 25.5563 15.6666 25.5173 15.6666H6.48267C6.44369 15.6666 6.40518 15.6751 6.36985 15.6916C6.33452 15.7081 6.30323 15.7321 6.27819 15.762C6.25315 15.7919 6.23496 15.8269 6.22491 15.8645C6.21485 15.9022 6.21318 15.9416 6.22 15.98L7.55333 23.5773C7.68866 24.3478 8.0649 25.0556 8.62794 25.5987C9.19097 26.1419 9.91178 26.4924 10.6867 26.6C14.212 27.0906 17.788 27.0906 21.3133 26.6C22.0882 26.4924 22.809 26.1419 23.3721 25.5987C23.9351 25.0556 24.3113 24.3478 24.4467 23.5773L25.78 15.98ZM14.3333 18.6666C14.3333 18.4014 14.228 18.1471 14.0404 17.9595C13.8529 17.772 13.5986 17.6666 13.3333 17.6666C13.0681 17.6666 12.8138 17.772 12.6262 17.9595C12.4387 18.1471 12.3333 18.4014 12.3333 18.6666V21.3333C12.3333 21.5985 12.4387 21.8529 12.6262 22.0404C12.8138 22.2279 13.0681 22.3333 13.3333 22.3333C13.5986 22.3333 13.8529 22.2279 14.0404 22.0404C14.228 21.8529 14.3333 21.5985 14.3333 21.3333V18.6666ZM18.6667 17.6666C18.9319 17.6666 19.1862 17.772 19.3738 17.9595C19.5613 18.1471 19.6667 18.4014 19.6667 18.6666V21.3333C19.6667 21.5985 19.5613 21.8529 19.3738 22.0404C19.1862 22.2279 18.9319 22.3333 18.6667 22.3333C18.4015 22.3333 18.1471 22.2279 17.9596 22.0404C17.772 21.8529 17.6667 21.5985 17.6667 21.3333V18.6666C17.6667 18.4014 17.772 18.1471 17.9596 17.9595C18.1471 17.772 18.4015 17.6666 18.6667 17.6666Z" fill="#FAFAF8"/>
</svg>
